<svg width="270.68" height="265.973" viewBox="0 0 203.01 199.48" class="displayed_equation" xmlns="http://www.w3.org/2000/svg">
  <path d="M 106.984375 103.457031 L 190.609375 103.457031 C 190.609375 57.269531 153.167969 19.832031 106.984375 19.832031 C 80.21875 19.832031 55.058594 32.652344 39.328125 54.304688" fill="#ed61ae" />
  <path d="M 106.984375 103.457031 L 39.328125 54.304688 C 23.597656 75.957031 19.179688 103.847656 27.453125 129.300781" fill="#62aadf" />
  <path d="M 106.984375 103.457031 L 27.449219 129.296875 C 38.644531 163.75 70.757813 187.082031 106.984375 187.082031" fill="#fbc04f" />
  <path d="M 106.984375 103.457031 L 106.984375 187.082031 C 153.167969 187.082031 190.609375 149.640625 190.609375 103.457031" fill="#69ba6c" />
  <path d="M1069.84375 960.229688L1906.09375 960.229688M1069.84375 960.229688L393.28125 1451.753125M1069.84375 960.229688L274.492188 701.83125M1069.84375 960.229688L1069.84375 123.979688M1906.09375 960.229688C1906.09375 1422.104688 1531.679688 1796.479688 1069.84375 1796.479688 607.96875 1796.479688 233.59375 1422.104688 233.59375 960.229688 233.59375 498.39375 607.96875 123.979688 1069.84375 123.979688 1531.679688 123.979688 1906.09375 498.39375 1906.09375 960.229688zM1906.09375 960.229688" transform="matrix(.1 0 0 -.1 0 199.48)" fill="none" stroke-width="7.97" stroke="#000" stroke-miterlimit="10" />
  <path d="M117.765625 59.617188L117.765625 58.847656 116.628906 58.847656 116.628906 54.183594 115.949219 54.183594 112.546875 58.914063 112.546875 59.617188 115.636719 59.617188 115.636719 61.378906 116.628906 61.378906 116.628906 59.617188zM115.636719 58.847656L113.160156 58.847656 113.160156 58.804688 115.589844 55.398438 115.636719 55.398438 115.636719 58.847656M123.222656 57.84375C123.222656 55.546875 122.21875 54.21875 120.777344 54.21875 119.160156 54.21875 118.300781 55.691406 118.300781 57.808594 118.300781 59.785156 118.960938 61.503906 120.757813 61.503906 122.507813 61.503906 123.222656 59.753906 123.222656 57.84375zM122.140625 57.910156C122.140625 60.050781 121.636719 61.101563 120.757813 61.101563 119.863281 61.101563 119.371094 60.03125 119.371094 57.867188 119.371094 55.65625 119.863281 54.597656 120.742188 54.597656 121.660156 54.597656 122.140625 55.644531 122.140625 57.910156M126.679688 55.566406C126.679688 56.660156 126.109375 57.585938 125.363281 57.585938 125.007813 57.585938 124.773438 57.351563 124.773438 56.570313 124.773438 55.714844 125.007813 54.574219 125.988281 54.574219 126.367188 54.574219 126.679688 54.910156 126.679688 55.566406zM130.71875 59.25C130.71875 58.367188 130.25 57.921875 129.601563 57.921875 128.34375 57.921875 127.660156 59.003906 127.660156 60.230469 127.660156 61.101563 128.117188 61.601563 128.890625 61.601563 129.890625 61.601563 130.71875 60.664063 130.71875 59.25zM130.339844 59.238281C130.339844 60.34375 129.757813 61.234375 128.988281 61.234375 128.65625 61.234375 128.429688 60.96875 128.429688 60.308594 128.429688 59.304688 128.675781 58.222656 129.636719 58.222656 130.015625 58.222656 130.339844 58.558594 130.339844 59.238281zM130.039063 53.949219L129.535156 53.949219C128.609375 54.886719 128.320313 54.941406 127.804688 54.941406 126.914063 54.941406 126.722656 54.273438 125.910156 54.273438 124.828125 54.273438 124.003906 55.234375 124.003906 56.5625 124.003906 57.417969 124.4375 57.953125 125.21875 57.953125 126.367188 57.953125 127.058594 56.816406 127.058594 55.636719 127.058594 55.445313 127.023438 55.242188 126.980469 55.089844L127.003906 55.066406C127.316406 55.199219 127.472656 55.242188 127.761719 55.242188 128.332031 55.242188 128.621094 55.089844 128.910156 54.886719L128.96875 54.886719 124.984375 61.613281 125.519531 61.613281 130.039063 53.949219M54.851563 99.578125L54.851563 99.265625C53.828125 99.265625 53.414063 99.066406 53.414063 98.519531L53.414063 92.453125 53.089844 92.453125 50.925781 93.0625 50.925781 93.433594C51.273438 93.320313 51.839844 93.253906 52.0625 93.253906 52.34375 93.253906 52.429688 93.410156 52.429688 93.800781L52.429688 98.519531C52.429688 99.078125 52.039063 99.265625 50.992188 99.265625L50.992188 99.578125 54.851563 99.578125M60.25 93.453125L60.429688 92.550781 57.375 92.550781 56.683594 95.464844 56.816406 95.628906C56.972656 95.628906 57.027344 95.628906 57.320313 95.652344 58.859375 95.730469 59.726563 96.1875 59.726563 97.582031 59.726563 98.742188 59.023438 99.167969 58.234375 99.167969 57.519531 99.167969 57.148438 98.621094 56.703125 98.621094 56.425781 98.621094 56.257813 98.84375 56.257813 99.101563 56.257813 99.511719 56.683594 99.726563 57.539063 99.726563 59.316406 99.726563 60.542969 98.855469 60.542969 97.136719 60.542969 95.386719 59.171875 94.859375 57.851563 94.761719L57.328125 94.726563 57.628906 93.453125 60.25 93.453125M64.378906 93.765625C64.378906 94.859375 63.8125 95.785156 63.0625 95.785156 62.707031 95.785156 62.472656 95.550781 62.472656 94.773438 62.472656 93.914063 62.707031 92.773438 63.6875 92.773438 64.066406 92.773438 64.378906 93.109375 64.378906 93.765625zM68.417969 97.449219C68.417969 96.566406 67.949219 96.121094 67.304688 96.121094 66.042969 96.121094 65.359375 97.203125 65.359375 98.433594 65.359375 99.300781 65.820313 99.804688 66.589844 99.804688 67.59375 99.804688 68.417969 98.867188 68.417969 97.449219zM68.039063 97.4375C68.039063 98.542969 67.460938 99.433594 66.6875 99.433594 66.355469 99.433594 66.132813 99.167969 66.132813 98.511719 66.132813 97.503906 66.375 96.421875 67.335938 96.421875 67.714844 96.421875 68.039063 96.757813 68.039063 97.4375zM67.738281 92.148438L67.234375 92.148438C66.308594 93.085938 66.019531 93.140625 65.507813 93.140625 64.613281 93.140625 64.421875 92.472656 63.609375 92.472656 62.527344 92.472656 61.703125 93.433594 61.703125 94.761719 61.703125 95.617188 62.136719 96.15625 62.917969 96.15625 64.066406 96.15625 64.757813 95.015625 64.757813 93.835938 64.757813 93.644531 64.726563 93.445313 64.679688 93.289063L64.703125 93.265625C65.015625 93.398438 65.171875 93.445313 65.460938 93.445313 66.03125 93.445313 66.320313 93.289063 66.609375 93.085938L66.667969 93.085938 62.683594 99.8125 63.21875 99.8125 67.738281 92.148438M74.476563 144.195313L74.152344 144.195313C73.898438 144.863281 73.75 145.097656 73.160156 145.097656L71.609375 145.097656 70.828125 145.132813 70.828125 145.078125 72.300781 143.679688C73.484375 142.488281 74.117188 141.71875 74.117188 140.726563 74.117188 139.554688 73.238281 138.796875 71.976563 138.796875 70.894531 138.796875 70.136719 139.421875 69.789063 140.5L70.058594 140.613281C70.472656 139.777344 70.960938 139.519531 71.6875 139.519531 72.546875 139.519531 73.082031 140.054688 73.082031 140.890625 73.082031 142.0625 72.523438 142.765625 71.421875 143.90625L69.722656 145.601563 69.722656 145.980469 74.117188 145.980469 74.476563 144.195313M80.023438 142.445313C80.023438 140.144531 79.015625 138.816406 77.578125 138.816406 75.960938 138.816406 75.101563 140.289063 75.101563 142.410156 75.101563 144.382813 75.757813 146.101563 77.554688 146.101563 79.308594 146.101563 80.023438 144.351563 80.023438 142.445313zM78.9375 142.507813C78.9375 144.652344 78.4375 145.699219 77.554688 145.699219 76.664063 145.699219 76.171875 144.628906 76.171875 142.464844 76.171875 140.257813 76.664063 139.195313 77.542969 139.195313 78.460938 139.195313 78.9375 140.246094 78.9375 142.507813M83.578125 140.167969C83.578125 141.261719 83.011719 142.1875 82.261719 142.1875 81.90625 142.1875 81.671875 141.953125 81.671875 141.171875 81.671875 140.3125 81.90625 139.175781 82.886719 139.175781 83.265625 139.175781 83.578125 139.507813 83.578125 140.167969zM87.617188 143.847656C87.617188 142.96875 87.148438 142.523438 86.503906 142.523438 85.242188 142.523438 84.5625 143.601563 84.5625 144.832031 84.5625 145.699219 85.019531 146.203125 85.789063 146.203125 86.792969 146.203125 87.617188 145.265625 87.617188 143.847656zM87.238281 143.835938C87.238281 144.941406 86.660156 145.835938 85.890625 145.835938 85.554688 145.835938 85.332031 145.566406 85.332031 144.910156 85.332031 143.90625 85.578125 142.820313 86.535156 142.820313 86.914063 142.820313 87.238281 143.15625 87.238281 143.835938zM86.9375 138.550781L86.4375 138.550781C85.507813 139.484375 85.21875 139.542969 84.707031 139.542969 83.8125 139.542969 83.625 138.875 82.808594 138.875 81.726563 138.875 80.902344 139.832031 80.902344 141.160156 80.902344 142.019531 81.335938 142.554688 82.117188 142.554688 83.265625 142.554688 83.960938 141.417969 83.960938 140.234375 83.960938 140.042969 83.925781 139.84375 83.882813 139.6875L83.902344 139.664063C84.214844 139.796875 84.371094 139.84375 84.660156 139.84375 85.230469 139.84375 85.519531 139.6875 85.8125 139.484375L85.867188 139.484375 81.882813 146.214844 82.417969 146.214844 86.9375 138.550781M136.777344 139.296875L136.453125 139.296875C136.195313 139.964844 136.050781 140.199219 135.460938 140.199219L133.910156 140.199219 133.128906 140.230469 133.128906 140.175781 134.601563 138.78125C135.785156 137.585938 136.417969 136.820313 136.417969 135.824219 136.417969 134.652344 135.539063 133.894531 134.277344 133.894531 133.195313 133.894531 132.4375 134.519531 132.089844 135.601563L132.359375 135.714844C132.773438 134.875 133.261719 134.621094 133.988281 134.621094 134.847656 134.621094 135.382813 135.15625 135.382813 135.992188 135.382813 137.164063 134.824219 137.867188 133.71875 139.003906L132.023438 140.699219 132.023438 141.078125 136.417969 141.078125 136.777344 139.296875M141.753906 134.953125L141.929688 134.050781 138.871094 134.050781 138.183594 136.960938 138.316406 137.128906C138.472656 137.128906 138.527344 137.128906 138.820313 137.152344 140.359375 137.230469 141.226563 137.6875 141.226563 139.082031 141.226563 140.242188 140.523438 140.667969 139.734375 140.667969 139.019531 140.667969 138.648438 140.121094 138.203125 140.121094 137.925781 140.121094 137.757813 140.34375 137.757813 140.601563 137.757813 141.011719 138.183594 141.226563 139.039063 141.226563 140.816406 141.226563 142.042969 140.355469 142.042969 138.636719 142.042969 136.882813 140.671875 136.359375 139.351563 136.261719L138.828125 136.226563 139.128906 134.953125 141.753906 134.953125M145.878906 135.265625C145.878906 136.359375 145.3125 137.285156 144.5625 137.285156 144.207031 137.285156 143.972656 137.050781 143.972656 136.273438 143.972656 135.414063 144.207031 134.273438 145.1875 134.273438 145.566406 134.273438 145.878906 134.609375 145.878906 135.265625zM149.917969 138.949219C149.917969 138.066406 149.449219 137.621094 148.804688 137.621094 147.542969 137.621094 146.859375 138.703125 146.859375 139.929688 146.859375 140.800781 147.320313 141.304688 148.089844 141.304688 149.09375 141.304688 149.917969 140.367188 149.917969 138.949219zM149.539063 138.9375C149.539063 140.042969 148.960938 140.933594 148.1875 140.933594 147.855469 140.933594 147.632813 140.667969 147.632813 140.007813 147.632813 139.003906 147.878906 137.921875 148.835938 137.921875 149.214844 137.921875 149.539063 138.257813 149.539063 138.9375zM149.238281 133.648438L148.734375 133.648438C147.808594 134.585938 147.519531 134.640625 147.007813 134.640625 146.113281 134.640625 145.921875 133.972656 145.109375 133.972656 144.027344 133.972656 143.203125 134.933594 143.203125 136.261719 143.203125 137.117188 143.636719 137.65625 144.417969 137.65625 145.566406 137.65625 146.257813 136.515625 146.257813 135.335938 146.257813 135.144531 146.226563 134.945313 146.179688 134.789063L146.203125 134.765625C146.515625 134.898438 146.671875 134.945313 146.960938 134.945313 147.53125 134.945313 147.820313 134.789063 148.109375 134.585938L148.167969 134.585938 144.183594 141.3125 144.71875 141.3125 149.238281 133.648438" />
</svg>